<svg width="640" height="640" viewBox="0 0 640 640" fill="none" xmlns="http://www.w3.org/2000/svg">
<mask id="mask0_996_12805" style="mask-type:luminance" maskUnits="userSpaceOnUse" x="304" y="342" width="292" height="172">
<path fill-rule="evenodd" clip-rule="evenodd" d="M304.064 342.361H595.556V513.925H304.064V342.361Z" fill="white"/>
</mask>
<g mask="url(#mask0_996_12805)">
<path fill-rule="evenodd" clip-rule="evenodd" d="M595.556 426.769C595.556 426.769 576.104 431.995 556.612 445.694C562.73 408.728 543.883 379.601 543.883 379.601C543.883 379.601 518.365 402.648 505.069 433.771C500.148 427.921 495.094 423.734 491.736 421.256C494.592 410.083 495.2 402.607 495.2 402.607C495.2 402.607 470.356 409.282 445.461 426.778C453.274 379.565 429.203 342.361 429.203 342.361C429.203 342.361 396.61 371.798 379.63 411.55C368.881 398.773 357.589 392.159 357.589 392.159C357.589 392.159 340.398 421.318 338.749 452.963C320.449 448.753 304.064 450.56 304.064 450.56C304.064 450.56 304.743 488.176 329.547 508.696C331.922 510.662 334.435 512.396 337.032 513.925H563.749C581.532 502.364 592.784 486.193 592.784 486.193C592.784 486.193 584.635 483.419 572.801 483.115C593.074 457.303 595.556 426.769 595.556 426.769Z" fill="#E7E7E7"/>
</g>
<mask id="mask1_996_12805" style="mask-type:luminance" maskUnits="userSpaceOnUse" x="44" y="319" width="332" height="195">
<path fill-rule="evenodd" clip-rule="evenodd" d="M44.4443 319.248H375.206V513.926H44.4443V319.248Z" fill="white"/>
</mask>
<g mask="url(#mask1_996_12805)">
<path fill-rule="evenodd" clip-rule="evenodd" d="M375.206 415.028C375.206 415.028 353.133 420.957 331.017 436.503C337.958 394.557 316.573 361.504 316.573 361.504C316.573 361.504 287.617 387.657 272.53 422.973C266.946 416.334 261.211 411.584 257.399 408.772C260.641 396.094 261.331 387.61 261.331 387.61C261.331 387.61 233.139 395.184 204.89 415.038C213.757 361.463 186.442 319.248 186.442 319.248C186.442 319.248 149.459 352.651 130.189 397.758C117.992 383.259 105.179 375.756 105.179 375.756C105.179 375.756 85.6725 408.842 83.8016 444.752C63.0362 439.974 44.4443 442.025 44.4443 442.025C44.4443 442.025 45.2153 484.708 73.3597 507.992C76.0545 510.222 78.9068 512.191 81.854 513.926H339.114C359.294 500.806 372.063 482.458 372.063 482.458C372.063 482.458 362.815 479.31 349.386 478.966C372.39 449.676 375.206 415.028 375.206 415.028Z" fill="#F5F5F5"/>
</g>
<path fill-rule="evenodd" clip-rule="evenodd" d="M116.368 93.1844C116.368 109.303 103.303 122.369 87.184 122.369C71.0666 122.369 58.001 109.303 58.001 93.1844C58.001 77.067 71.0666 64 87.184 64C103.303 64 116.368 77.067 116.368 93.1844Z" fill="#F5F5F5"/>
<path fill-rule="evenodd" clip-rule="evenodd" d="M268.761 578.063H232.754C240.099 567.42 248.473 567.666 248.473 567.666L268.761 578.063Z" fill="#FCF17B"/>
<path fill-rule="evenodd" clip-rule="evenodd" d="M265.464 470.547C265.464 470.547 265.464 493.628 261.661 510.113C257.858 526.582 248.473 567.665 248.473 567.665C248.473 567.665 240.099 567.42 232.754 578.062C232.754 578.062 239.854 495.911 234.011 473.583L265.464 470.547Z" fill="#E49766"/>
<path fill-rule="evenodd" clip-rule="evenodd" d="M229.455 578.063H193.448C200.794 567.42 209.167 567.666 209.167 567.666L229.455 578.063Z" fill="#FCF17B"/>
<path fill-rule="evenodd" clip-rule="evenodd" d="M226.157 470.547C226.157 470.547 226.157 493.628 222.356 510.113C218.551 526.582 209.166 567.665 209.166 567.665C209.166 567.665 200.793 567.42 193.447 578.062C193.447 578.062 200.547 495.911 194.705 473.583L226.157 470.547Z" fill="#E49766"/>
<path fill-rule="evenodd" clip-rule="evenodd" d="M178.12 396.24H228.984C244.055 396.24 256.273 384.023 256.273 368.953V283.741C256.273 268.669 244.055 256.453 228.984 256.453H178.12C163.048 256.453 150.832 268.669 150.832 283.741V368.953C150.832 384.023 163.048 396.24 178.12 396.24Z" fill="#54B2D3"/>
<path fill-rule="evenodd" clip-rule="evenodd" d="M156.465 338.388H156.464C155.617 338.388 154.932 337.703 154.932 336.856V286.15C154.932 271.415 167.859 259.429 183.751 259.429H223.35C238.636 259.429 251.18 270.516 252.117 284.473C252.177 285.374 251.492 286.15 250.588 286.15C249.797 286.15 249.113 285.551 249.063 284.761C248.277 272.362 237.044 262.496 223.35 262.496H183.751C169.552 262.496 157.999 273.108 157.999 286.15V336.856C157.999 337.703 157.312 338.388 156.465 338.388Z" fill="#3EA0BA"/>
<path fill-rule="evenodd" clip-rule="evenodd" d="M277.898 475.302C267.209 479.487 236.677 475.67 236.677 475.67C217.584 482.17 178.265 476.82 178.265 476.82C178.265 476.82 179.415 407.35 178.694 400.771C178.694 400.771 183.356 399.929 190.656 398.854C196.391 397.997 203.752 397.015 211.757 396.156C234.223 393.795 261.842 392.568 273.236 398.947L277.898 475.302Z" fill="#132143"/>
<path fill-rule="evenodd" clip-rule="evenodd" d="M253.291 417.482C253.082 417.112 252.611 416.98 252.245 417.195L239.977 424.165C237.469 425.591 235.911 428.269 235.911 431.153V474.136C235.911 474.561 236.255 474.903 236.678 474.903C237.101 474.903 237.445 474.561 237.445 474.136V431.153C237.445 428.819 238.705 426.652 240.734 425.499L253.004 418.528C253.372 418.318 253.501 417.85 253.291 417.482Z" fill="#496FBA"/>
<path fill-rule="evenodd" clip-rule="evenodd" d="M212.304 392.439C211.895 392.381 211.5 392.683 211.445 393.103C208.269 417.889 195.102 425.054 191.417 426.59V393.96C191.417 393.537 191.074 393.193 190.651 393.193C190.227 393.193 189.884 393.537 189.884 393.96V477.138C189.884 477.563 190.227 477.905 190.651 477.905C191.074 477.905 191.417 477.563 191.417 477.138V428.248C194.563 427.146 209.476 420.527 212.968 393.298C213.022 392.877 212.724 392.493 212.304 392.439Z" fill="#496FBA"/>
<path fill-rule="evenodd" clip-rule="evenodd" d="M336.112 324.739L303.739 398.517L286.47 362.803L317.962 291.034C318.309 290.244 319.422 290.224 319.798 291L336.112 324.739Z" fill="#6BC9BE"/>
<path fill-rule="evenodd" clip-rule="evenodd" d="M334.14 329.01L304.178 397.292L289.536 365.597L318.595 299.372C318.945 298.574 320.073 298.564 320.438 299.355L334.14 329.01Z" fill="#E6E6E6"/>
<path fill-rule="evenodd" clip-rule="evenodd" d="M278.588 201.276C275.291 215.139 268.36 229.662 238.333 233.955V248.141C238.333 248.141 240.312 268.935 234.039 268.935C227.767 268.935 206.313 243.847 206.313 243.847L208.767 230.29L209.948 223.727L191.131 205.248C191.131 205.248 173.312 209.864 168.037 192.704C164.08 179.837 173.481 177.905 178.848 179.837C182.636 181.202 186.853 180.374 189.552 177.399C191.929 174.807 194.321 171.096 195.763 165.928C197.051 161.343 197.588 155.608 196.744 148.477C196.744 148.477 215.223 155.408 217.201 129.998C217.201 129.998 224.792 143.523 237.674 143.523C247.626 143.523 248.301 131.087 248.102 125.458C248.041 123.818 247.903 122.744 247.903 122.744C247.903 122.744 248.087 123.879 248.577 125.581C249.973 130.458 253.883 140.088 263.268 141.392C263.989 141.514 264.741 141.56 265.523 141.56C266.105 143.416 266.719 145.348 267.332 147.342C267.777 148.814 268.237 150.317 268.697 151.85V151.866C269.111 153.231 269.525 154.626 269.924 156.022C271.872 162.662 273.758 169.517 275.291 175.896C276.855 182.352 278.067 188.318 278.588 193.056C279.002 196.568 279.033 199.405 278.588 201.276Z" fill="#E49766"/>
<path fill-rule="evenodd" clip-rule="evenodd" d="M259.117 184.555C258.717 184.555 258.383 184.247 258.352 183.842C258.34 183.671 258.007 179.607 254.497 179.607C250.709 179.607 248.594 183.456 248.573 183.496C248.37 183.867 247.909 184.005 247.533 183.807C247.16 183.606 247.021 183.14 247.222 182.767C247.326 182.576 249.803 178.073 254.497 178.073C258.456 178.073 259.751 181.778 259.883 183.74C259.912 184.16 259.593 184.525 259.169 184.554C259.151 184.555 259.134 184.555 259.117 184.555Z" fill="#CC7544"/>
<path fill-rule="evenodd" clip-rule="evenodd" d="M253.96 195.964C246.285 195.964 240.554 190.218 240.47 190.13C240.175 189.828 240.181 189.344 240.484 189.048C240.787 188.753 241.273 188.761 241.568 189.06C242.029 189.531 252.933 200.411 264.549 189.928C264.864 189.646 265.348 189.67 265.632 189.985C265.917 190.299 265.891 190.783 265.577 191.067C261.533 194.717 257.535 195.964 253.96 195.964Z" fill="#CC7544"/>
<path fill-rule="evenodd" clip-rule="evenodd" d="M238.335 233.956V245.304C231.619 244.474 227.552 239.003 225.307 234.497C224.452 232.78 226.117 230.852 227.91 231.538C232.527 233.306 238.335 233.956 238.335 233.956Z" fill="#CC7544"/>
<path fill-rule="evenodd" clip-rule="evenodd" d="M226.777 184.685C226.777 189.554 222.829 193.503 217.959 193.503C213.09 193.503 209.143 189.554 209.143 184.685C209.143 179.816 213.09 175.867 217.959 175.867C222.829 175.867 226.777 179.816 226.777 184.685Z" fill="#EA7E42"/>
<path fill-rule="evenodd" clip-rule="evenodd" d="M278.588 193.056C277.729 193.347 276.794 193.5 275.828 193.5C270.966 193.5 267.01 189.559 267.01 184.683C267.01 180.005 270.675 176.156 275.291 175.896C276.855 182.352 278.066 188.317 278.588 193.056Z" fill="#EA7E42"/>
<path fill-rule="evenodd" clip-rule="evenodd" d="M235.718 165.435C235.718 168.042 233.605 170.154 230.998 170.154C228.392 170.154 226.279 168.042 226.279 165.435C226.279 162.83 228.392 160.717 230.998 160.717C233.605 160.717 235.718 162.83 235.718 165.435Z" fill="#132143"/>
<path fill-rule="evenodd" clip-rule="evenodd" d="M270.242 165.435C270.242 168.042 268.128 170.154 265.521 170.154C262.916 170.154 260.803 168.042 260.803 165.435C260.803 162.83 262.916 160.717 265.521 160.717C268.128 160.717 270.242 162.83 270.242 165.435Z" fill="#132143"/>
<path fill-rule="evenodd" clip-rule="evenodd" d="M236.175 152.574C234.691 150.625 232.599 149.33 230.211 148.666C227.827 147.984 225.183 148.194 222.852 149.016C220.494 149.846 218.569 151.356 216.899 152.97C216.125 153.834 215.401 154.73 214.727 155.644C214.129 156.612 213.565 157.592 213.048 158.581C212.852 158.959 212.998 159.424 213.375 159.622C213.666 159.774 214.011 159.722 214.244 159.515L214.306 159.459C215.115 158.737 215.878 158.004 216.604 157.257C217.416 156.599 218.176 155.908 218.968 155.282C220.604 154.117 222.265 153.072 224.045 152.52C225.824 151.97 227.638 151.876 229.495 152.088C231.351 152.289 233.272 152.942 235.152 153.716L235.261 153.761C235.659 153.925 236.111 153.735 236.275 153.339C236.384 153.075 236.335 152.785 236.175 152.574Z" fill="#132143"/>
<path fill-rule="evenodd" clip-rule="evenodd" d="M268.697 151.85C268.069 151.53 267.409 151.252 266.735 151.037C264.956 150.485 263.131 150.379 261.275 150.593C259.42 150.792 257.503 151.451 255.616 152.218L255.509 152.266C255.11 152.433 254.666 152.249 254.497 151.85C254.39 151.591 254.436 151.298 254.589 151.083C256.077 149.136 258.177 147.848 260.554 147.173C262.747 146.559 265.155 146.667 267.333 147.341C267.777 148.815 268.237 150.317 268.697 151.85Z" fill="#132143"/>
<mask id="mask2_996_12805" style="mask-type:luminance" maskUnits="userSpaceOnUse" x="135" y="67" width="157" height="164">
<path fill-rule="evenodd" clip-rule="evenodd" d="M135.062 67.6045H291.103V230.325H135.062V67.6045Z" fill="white"/>
</mask>
<g mask="url(#mask2_996_12805)">
<path fill-rule="evenodd" clip-rule="evenodd" d="M291.103 143.952C291.103 151.696 284.815 157.984 277.071 157.984C274.464 157.984 272.026 157.263 269.925 156.021C269.526 154.625 269.112 153.23 268.698 151.865V151.85C268.238 150.316 267.778 148.813 267.333 147.341C266.72 145.348 266.106 143.415 265.524 141.56C264.742 141.56 263.99 141.514 263.269 141.391C253.884 140.088 249.974 130.457 248.578 125.58C248.087 123.878 247.903 122.743 247.903 122.743C247.903 122.743 248.041 123.817 248.103 125.458C248.302 131.086 247.627 143.523 237.675 143.523C224.793 143.523 217.202 129.997 217.202 129.997C215.224 155.408 196.745 148.476 196.745 148.476C197.588 155.607 197.052 161.342 195.764 165.927C194.322 171.095 191.93 174.807 189.553 177.398C186.854 180.373 182.637 181.201 178.849 179.837C173.481 177.904 164.081 179.837 168.037 192.703C173.313 209.863 191.132 205.247 191.132 205.247L209.949 223.726L208.768 230.29C201.974 230.78 194.567 226.026 188.878 218.021C187.651 219.003 186.302 219.77 184.814 220.26C174.647 223.603 162.133 213.589 155.984 197.656C148.531 193.991 141.431 185.204 137.658 173.702C131.938 156.251 135.987 139.275 146.706 135.748C148.102 135.303 149.528 135.104 150.969 135.119C148.991 131.96 147.795 127.957 147.795 123.587C147.795 113.358 154.297 105.077 162.317 105.077C164.817 105.077 167.163 105.89 169.218 107.301C166.305 91.0148 180.474 74.0846 201.591 69.0393C221.404 64.3007 240.481 71.6617 246.707 85.6628C248.87 84.896 251.185 84.4666 253.608 84.4666C264.956 84.4666 274.173 93.5451 274.433 104.847C283.113 104.97 290.106 112.024 290.106 120.734C290.106 125.335 288.143 129.476 284.999 132.374C288.68 134.904 291.103 139.152 291.103 143.952Z" fill="#132143"/>
</g>
<path fill-rule="evenodd" clip-rule="evenodd" d="M248.578 125.581C248.409 125.535 248.256 125.505 248.102 125.458C248.041 123.818 247.903 122.744 247.903 122.744C247.903 122.744 248.087 123.879 248.578 125.581Z" fill="black"/>
<path fill-rule="evenodd" clip-rule="evenodd" d="M273.237 398.947C261.843 392.568 234.224 393.795 211.758 396.156C203.753 397.015 196.392 397.997 190.657 398.854C183.357 399.929 178.695 400.771 178.695 400.771C169.786 384.977 168.774 287.598 173.221 271.005C177.683 254.397 206.314 243.847 206.314 243.847C206.314 243.847 227.768 268.935 234.04 268.935C240.313 268.935 238.334 248.141 238.334 248.141V245.564C247.443 250.855 256.016 256.836 256.016 256.836C256.231 257.142 256.43 257.464 256.645 257.817C259.62 262.847 262.411 273.183 264.941 285.942C267.057 296.723 269.005 309.252 270.692 321.765C271.228 325.737 271.735 329.709 272.225 333.619C275.461 359.827 277.531 383.551 277.884 388.213C278.697 398.532 273.237 398.947 273.237 398.947Z" fill="#E6E6E6"/>
<path fill-rule="evenodd" clip-rule="evenodd" d="M213.001 279.316C213.154 291.722 207.741 316.382 205.563 325.813C204.628 311.704 202.067 281.816 197.083 272.707C190.473 260.668 176.656 264.257 174.755 267.462C172.454 271.327 170.583 275.421 169.05 279.822C169.387 274.225 171.411 264.288 180.766 256.789C194.552 245.717 212.817 263.782 213.001 279.316Z" fill="#70BEE1"/>
<path fill-rule="evenodd" clip-rule="evenodd" d="M276.303 283.397C276.334 285.697 276.165 288.427 275.874 291.402C274.908 300.925 272.577 312.963 270.691 321.765C269.004 309.252 267.056 296.723 264.94 285.942C262.41 273.183 259.619 262.847 256.644 257.817C266.934 260.056 276.181 272.371 276.303 283.397Z" fill="#70BEE1"/>
<path fill-rule="evenodd" clip-rule="evenodd" d="M284.243 329.777L272.223 333.62C271.732 329.708 271.226 325.736 270.689 321.764C272.577 312.962 274.907 300.925 275.873 291.4L286.295 325.873C286.791 327.515 285.878 329.254 284.243 329.777Z" fill="#D6D6D6"/>
<path fill-rule="evenodd" clip-rule="evenodd" d="M336.111 324.739L303.739 398.517L254.927 377.095L251.8 375.723C250.206 375.024 249.481 373.165 250.18 371.573L280.023 303.563C280.721 301.971 282.579 301.246 284.173 301.945L287.299 303.318L336.111 324.739Z" fill="#6BC9BE"/>
<path fill-rule="evenodd" clip-rule="evenodd" d="M336.112 324.739L303.739 398.517L254.927 377.095L287.299 303.317L336.112 324.739Z" fill="#9CE5DE"/>
<path fill-rule="evenodd" clip-rule="evenodd" d="M172.827 188.059L181.134 192.822C182.499 193.643 183.863 194.468 185.208 195.334C186.57 196.179 187.889 197.092 189.284 197.943L189.304 197.955C189.669 198.179 190.146 198.062 190.369 197.697C190.548 197.405 190.508 197.04 190.298 196.791C189.211 195.515 188.007 194.339 186.713 193.276C185.434 192.192 184.052 191.234 182.629 190.349C181.214 189.447 179.706 188.694 178.165 188.03C176.602 187.394 175.024 186.854 173.294 186.599C172.87 186.536 172.476 186.829 172.413 187.254C172.365 187.579 172.525 187.886 172.793 188.039L172.827 188.059Z" fill="#CC7544"/>
<path fill-rule="evenodd" clip-rule="evenodd" d="M205.854 330.49C205.961 332.117 204.873 333.574 203.278 333.941L200.839 334.508L175.245 340.491L168.329 342.099C166.304 342.576 164.342 341.104 164.234 339.018C162.885 313.346 163.881 294.775 169.049 279.823C170.583 275.423 172.454 271.327 174.754 267.462C176.656 264.259 190.473 260.671 197.082 272.707C202.066 281.816 204.627 311.705 205.563 325.813C205.685 327.669 205.777 329.264 205.854 330.49Z" fill="#D8D8D8"/>
<path fill-rule="evenodd" clip-rule="evenodd" d="M285.827 348.449C279.999 357.572 264.465 358.356 264.465 358.356C264.465 358.356 196.115 376.02 186.592 369.428C180.013 364.856 176.686 349.506 175.244 340.49L200.839 334.508L202.71 346.316C209.12 340.688 261.168 342.037 261.168 342.037C259.619 331.548 270.093 324.756 273.206 325.139C276.242 325.523 269.679 334.019 269.341 334.446C281.18 326.305 291.853 329.801 294.951 335.046C298.064 340.291 285.827 348.449 285.827 348.449Z" fill="#E49766"/>
<path fill-rule="evenodd" clip-rule="evenodd" d="M189.314 360.287C189.161 360.287 189.007 360.242 188.874 360.147C188.526 359.905 188.443 359.425 188.687 359.08C189.009 358.62 196.65 347.798 202.438 345.6C202.83 345.454 203.275 345.649 203.427 346.045C203.577 346.442 203.378 346.884 202.982 347.034C197.63 349.067 190.018 359.851 189.941 359.96C189.792 360.173 189.555 360.287 189.314 360.287Z" fill="#CC7544"/>
<path fill-rule="evenodd" clip-rule="evenodd" d="M454.241 454.445L452.171 545.26C447.214 535.622 440.187 534.541 440.187 534.541C440.187 534.541 439.128 516.875 437.449 504.89C435.769 492.894 430.927 451.892 430.927 451.892L454.241 454.445Z" fill="#FFC66D"/>
<path fill-rule="evenodd" clip-rule="evenodd" d="M452.17 545.259H426.097L440.186 534.54C440.186 534.54 447.212 535.621 452.17 545.259Z" fill="#132143"/>
<path fill-rule="evenodd" clip-rule="evenodd" d="M460.441 454.445L462.512 545.26C467.468 535.622 474.496 534.541 474.496 534.541C474.496 534.541 475.554 516.875 477.234 504.89C478.913 492.894 483.755 451.892 483.755 451.892L460.441 454.445Z" fill="#FFC66D"/>
<path fill-rule="evenodd" clip-rule="evenodd" d="M462.511 545.259H488.584L474.495 534.54C474.495 534.54 467.468 535.621 462.511 545.259Z" fill="#132143"/>
<path fill-rule="evenodd" clip-rule="evenodd" d="M483.033 385.583L493.783 376.943C490.429 367.378 484.014 348.408 481.997 337.715C481.13 333.116 481.957 330.2 483.506 328.364C471.105 320.489 458.196 321.62 458.196 321.62H455.699C455.699 321.62 442.564 320.466 430.065 328.568C431.509 330.415 432.256 333.278 431.418 337.715C429.423 348.293 423.12 366.981 419.739 376.642L430.864 385.583C430.864 385.583 429.754 399.459 423.648 406.535C417.544 413.611 409.218 439.002 408.108 451.213C408.108 451.213 414.768 463.838 457.226 463.838C499.683 463.838 505.788 451.213 505.788 451.213C504.677 439.002 496.353 413.611 490.247 406.535C484.143 399.459 483.033 385.583 483.033 385.583Z" fill="#FF2C3E"/>
<path fill-rule="evenodd" clip-rule="evenodd" d="M481.997 337.716C484.014 348.408 490.428 367.378 493.782 376.944L512.031 362.274C512.031 362.274 498.156 338.687 485.253 329.53C484.672 329.118 484.089 328.734 483.506 328.363C481.958 330.2 481.129 333.117 481.997 337.716Z" fill="#132143"/>
<path fill-rule="evenodd" clip-rule="evenodd" d="M430.065 328.569C429.59 328.878 429.116 329.194 428.643 329.53C415.74 338.687 401.864 362.274 401.864 362.274L419.738 376.642C423.12 366.982 429.422 348.294 431.418 337.716C432.255 333.279 431.509 330.415 430.065 328.569Z" fill="#132143"/>
<mask id="mask3_996_12805" style="mask-type:luminance" maskUnits="userSpaceOnUse" x="366" y="210" width="75" height="130">
<path fill-rule="evenodd" clip-rule="evenodd" d="M366.64 210.267H440.219V339.511H366.64V210.267Z" fill="white"/>
</mask>
<g mask="url(#mask3_996_12805)">
<path fill-rule="evenodd" clip-rule="evenodd" d="M437.873 235.804C437.432 219.609 423.742 207.361 409.294 210.87C408.886 210.969 408.477 211.079 408.065 211.201C391.601 216.087 387.908 244.558 389.447 255.677C390.984 266.796 389.754 275.557 376.983 281.621C364.21 287.686 362.21 309.587 376.983 315.315C376.983 315.315 374.981 337.721 395.447 337.384C395.447 337.384 415.297 345.976 423.453 328.624C423.453 328.624 443.456 328.118 439.764 305.206L437.873 235.804Z" fill="#93463E"/>
</g>
<mask id="mask4_996_12805" style="mask-type:luminance" maskUnits="userSpaceOnUse" x="474" y="210" width="74" height="130">
<path fill-rule="evenodd" clip-rule="evenodd" d="M474.198 210.267H547.777V339.511H474.198V210.267Z" fill="white"/>
</mask>
<g mask="url(#mask4_996_12805)">
<path fill-rule="evenodd" clip-rule="evenodd" d="M476.544 235.804C476.985 219.609 490.676 207.361 505.124 210.87C505.531 210.969 505.94 211.079 506.352 211.201C522.816 216.087 526.51 244.558 524.971 255.677C523.433 266.796 524.664 275.557 537.435 281.621C550.207 287.686 552.207 309.587 537.435 315.315C537.435 315.315 539.436 337.721 518.97 337.384C518.97 337.384 499.12 345.976 490.964 328.624C490.964 328.624 470.961 328.118 474.653 305.206L476.544 235.804Z" fill="#93463E"/>
</g>
<path fill-rule="evenodd" clip-rule="evenodd" d="M464.757 311.412V325.892L464.728 325.971C462.271 332.662 452.789 332.61 450.403 325.892V311.412C451.046 311.458 451.656 311.493 452.221 311.527C454.727 311.677 456.314 311.711 456.314 311.711H458.856C458.856 311.711 460.444 311.677 462.94 311.527C463.502 311.493 464.112 311.458 464.757 311.412Z" fill="#FFC66D"/>
<path fill-rule="evenodd" clip-rule="evenodd" d="M463.032 312.62C463.032 316.128 460.594 318.98 457.581 318.98C454.567 318.98 452.129 316.128 452.129 312.62C452.129 312.252 452.152 311.884 452.221 311.527C454.727 311.677 456.314 311.711 456.314 311.711H458.856C458.856 311.711 460.444 311.677 462.94 311.527C463.008 311.884 463.032 312.252 463.032 312.62Z" fill="#EDAB54"/>
<path fill-rule="evenodd" clip-rule="evenodd" d="M463.46 209.349C461.225 209.362 459.042 209.558 456.919 209.915C454.798 209.558 452.615 209.362 450.38 209.349C423.759 209.181 405.141 230.599 405.141 253.487C405.141 276.376 424.74 294.93 448.919 294.93C451.652 294.93 454.325 294.681 456.919 294.227C459.515 294.681 462.188 294.93 464.922 294.93C489.1 294.93 508.7 276.376 508.7 253.487C508.7 230.599 490.081 209.181 463.46 209.349Z" fill="#A1584D"/>
<path fill-rule="evenodd" clip-rule="evenodd" d="M421.279 292.826C420.827 293.125 420.334 293.332 419.818 293.447C415.911 294.368 411.782 290.135 410.574 284.005C409.376 277.863 411.562 272.147 415.459 271.238C417.004 270.87 418.59 271.319 420.018 272.377C420.018 276.92 420.187 285.488 421.279 292.826Z" fill="#F4B664"/>
<path fill-rule="evenodd" clip-rule="evenodd" d="M495.141 272.377C495.141 276.931 494.973 285.5 493.87 292.826C493.103 297.968 491.884 302.499 489.951 304.615C485.78 309.181 471.904 310.838 464.129 311.413C460.914 311.654 458.74 311.712 458.74 311.712H456.418C456.418 311.712 454.243 311.654 451.02 311.413C443.246 310.838 429.367 309.181 425.198 304.615C423.264 302.499 422.045 297.968 421.278 292.826C420.186 285.488 420.019 276.92 420.019 272.377C420.019 270.376 420.05 269.156 420.05 269.156C446.449 260.979 456.577 228.073 456.577 228.073C467.376 258.437 495.11 269.156 495.11 269.156C495.11 269.156 495.141 270.376 495.141 272.377Z" fill="#FFC66D"/>
<path fill-rule="evenodd" clip-rule="evenodd" d="M504.576 284.005C503.377 290.135 499.238 294.368 495.331 293.447C494.817 293.332 494.322 293.125 493.87 292.826C494.973 285.5 495.142 276.931 495.142 272.377C496.559 271.319 498.146 270.87 499.691 271.238C503.589 272.147 505.783 277.863 504.576 284.005Z" fill="#F4B664"/>
<path fill-rule="evenodd" clip-rule="evenodd" d="M461.329 288.107C461.056 288.107 460.813 287.91 460.764 287.633C460.744 287.531 460.269 285.191 456.929 285.191C453.6 285.191 453.177 287.272 453.16 287.361C453.105 287.671 452.804 287.883 452.497 287.826C452.186 287.772 451.976 287.48 452.027 287.169C452.032 287.138 452.589 284.041 456.929 284.041C461.266 284.041 461.891 287.402 461.897 287.435C461.95 287.748 461.739 288.045 461.426 288.099C461.394 288.104 461.361 288.107 461.329 288.107Z" fill="#EDAB54"/>
<path fill-rule="evenodd" clip-rule="evenodd" d="M443.481 291.601C445.711 292.257 448.024 292.776 450.315 293.128C452.613 293.479 454.922 293.686 457.228 293.665C459.532 293.683 461.838 293.516 464.12 293.135C466.424 292.822 468.657 292.175 470.978 291.591L471.016 291.581C471.327 291.504 471.64 291.691 471.719 292.001C471.782 292.254 471.667 292.511 471.453 292.638C469.343 293.895 467.055 294.951 464.63 295.535C463.433 295.915 462.19 296.049 460.956 296.266C460.336 296.348 459.71 296.364 459.088 296.416C458.464 296.471 457.839 296.491 457.215 296.472C454.716 296.459 452.221 296.154 449.818 295.51C447.41 294.878 445.093 293.989 442.961 292.627C442.692 292.456 442.613 292.099 442.786 291.832C442.927 291.61 443.194 291.518 443.433 291.588L443.481 291.601Z" fill="#EDAB54"/>
<path fill-rule="evenodd" clip-rule="evenodd" d="M473.002 274.671C473.869 275.61 474.789 276.531 475.73 277.284C476.672 278.049 477.663 278.643 478.661 278.987C479.666 279.337 480.663 279.317 481.698 279.094C482.231 279.039 482.738 278.775 483.293 278.593C483.842 278.378 484.36 278.038 484.981 277.816L485.074 277.783C485.354 277.683 485.656 277.85 485.748 278.157C485.803 278.34 485.769 278.535 485.673 278.681C484.875 279.89 483.801 280.995 482.372 281.558C480.989 282.166 479.298 282.211 477.885 281.618C476.454 281.084 475.265 280.117 474.309 279.023C473.36 277.903 472.597 276.682 472.1 275.259C471.994 274.958 472.131 274.621 472.405 274.506C472.607 274.422 472.827 274.48 472.971 274.636L473.002 274.671Z" fill="#132143"/>
<path fill-rule="evenodd" clip-rule="evenodd" d="M467.208 262.999C468.123 260.824 469.881 259.331 471.848 258.418C473.837 257.527 476.025 257.402 478.055 257.705C479.096 257.775 480.064 258.135 481.053 258.388C482.011 258.733 482.953 259.126 483.866 259.561C484.752 260.06 485.651 260.526 486.492 261.092C487.319 261.681 488.134 262.284 488.925 262.915C489.16 263.104 489.212 263.464 489.039 263.721C488.897 263.935 488.646 264.01 488.43 263.923L488.392 263.906C487.489 263.537 486.611 263.14 485.746 262.729C484.869 262.347 483.975 262.041 483.107 261.673C482.225 261.365 481.329 261.114 480.452 260.841C479.556 260.687 478.673 260.408 477.784 260.363C476.013 260.16 474.245 260.231 472.598 260.768C470.964 261.281 469.37 262.253 468.115 263.58L468.048 263.65C467.84 263.871 467.509 263.864 467.307 263.637C467.153 263.462 467.122 263.207 467.208 262.999Z" fill="black"/>
<path fill-rule="evenodd" clip-rule="evenodd" d="M441.641 274.671C440.774 275.61 439.854 276.531 438.913 277.284C437.971 278.049 436.98 278.643 435.983 278.987C434.978 279.337 433.98 279.317 432.945 279.094C432.413 279.039 431.905 278.775 431.35 278.593C430.801 278.378 430.284 278.038 429.663 277.816L429.57 277.783C429.289 277.683 428.988 277.85 428.896 278.157C428.84 278.34 428.875 278.535 428.97 278.681C429.768 279.89 430.843 280.995 432.271 281.558C433.655 282.166 435.346 282.211 436.758 281.618C438.19 281.084 439.378 280.117 440.335 279.023C441.284 277.903 442.046 276.682 442.543 275.259C442.649 274.958 442.512 274.621 442.237 274.506C442.036 274.422 441.816 274.48 441.673 274.636L441.641 274.671Z" fill="#132143"/>
<path fill-rule="evenodd" clip-rule="evenodd" d="M447.435 262.999C446.52 260.824 444.762 259.331 442.795 258.418C440.807 257.527 438.618 257.402 436.588 257.705C435.547 257.775 434.58 258.135 433.591 258.388C432.632 258.733 431.691 259.126 430.776 259.561C429.892 260.06 428.992 260.526 428.152 261.092C427.325 261.681 426.509 262.284 425.718 262.915C425.483 263.104 425.431 263.464 425.604 263.721C425.747 263.935 425.997 264.01 426.214 263.923L426.252 263.906C427.154 263.537 428.032 263.14 428.897 262.729C429.774 262.347 430.668 262.041 431.536 261.673C432.419 261.365 433.315 261.114 434.191 260.841C435.087 260.687 435.97 260.408 436.859 260.363C438.63 260.16 440.397 260.231 442.045 260.768C443.68 261.281 445.274 262.253 446.529 263.58L446.595 263.65C446.803 263.871 447.135 263.864 447.336 263.637C447.49 263.462 447.521 263.207 447.435 262.999Z" fill="black"/>
<path fill-rule="evenodd" clip-rule="evenodd" d="M447.65 372.542V407.782L392.513 390.174C391.948 390.001 391.511 389.53 391.385 388.943L382.701 349.677C382.438 348.469 383.518 347.434 384.668 347.676C384.76 347.687 384.863 347.722 384.955 347.756L387.21 348.654L447.65 372.542Z" fill="#70BEE1"/>
<path fill-rule="evenodd" clip-rule="evenodd" d="M528.678 347.286L528.621 347.665C528.517 347.688 528.425 347.723 528.322 347.757L526.067 348.654L465.639 372.543C465.639 372.543 461.521 376.844 456.944 376.844C452.366 376.844 447.65 372.543 447.65 372.543L387.21 348.654L384.956 347.757C384.864 347.723 384.761 347.688 384.669 347.677L384.611 347.286C384.381 345.859 385.773 344.721 387.118 345.227L387.337 345.307L445.845 367.275C445.845 367.275 451.401 368.931 453.896 373.371C453.896 373.371 454.678 374.843 456.691 374.843C458.715 374.843 459.393 373.371 459.393 373.371C461.89 368.931 467.444 367.275 467.444 367.275L525.941 345.307L526.16 345.227C527.516 344.721 528.897 345.859 528.678 347.286Z" fill="#E1EFED"/>
<path fill-rule="evenodd" clip-rule="evenodd" d="M530.588 349.678L521.905 388.944C521.767 389.529 521.341 390.002 520.766 390.175L465.64 407.783V372.543L526.068 348.654L528.323 347.757C528.426 347.723 528.518 347.688 528.622 347.665C529.772 347.447 530.853 348.47 530.588 349.678Z" fill="#70BEE1"/>
<path fill-rule="evenodd" clip-rule="evenodd" d="M525.942 345.306L467.445 367.274C467.445 367.274 461.891 368.932 459.394 373.37C459.394 373.37 458.716 374.842 456.692 374.842C454.679 374.842 453.897 373.37 453.897 373.37C451.401 368.932 445.846 367.274 445.846 367.274L387.338 345.306L387.717 335.22C387.717 335.22 402.278 344.455 414.493 351.586C432.032 361.846 452.057 364.755 454.817 372.68C455.093 373.485 455.748 374.118 456.6 374.141H456.716C457.543 374.129 458.198 373.497 458.463 372.703C461.189 364.755 481.247 361.857 498.798 351.586C511.014 344.455 525.574 335.22 525.574 335.22L525.942 345.306Z" fill="#E6E6E6"/>
<path fill-rule="evenodd" clip-rule="evenodd" d="M465.639 372.543V407.783C465.639 407.783 462.913 411.671 457.082 411.671C451.262 411.671 447.649 407.783 447.649 407.783V372.543C447.649 372.543 452.366 376.845 456.943 376.845C461.521 376.845 465.639 372.543 465.639 372.543Z" fill="#57B3D3"/>
<path fill-rule="evenodd" clip-rule="evenodd" d="M527.751 362.111C527.751 362.111 536.313 364.596 533.829 374.651C531.344 384.707 519.159 387.073 516.794 381.632C514.427 376.189 527.085 365.188 527.085 365.188L527.751 362.111Z" fill="#FFC66D"/>
<path fill-rule="evenodd" clip-rule="evenodd" d="M528.943 371.48C528.21 371.48 527.594 371.219 527.108 370.706C525.874 369.398 526.004 366.854 526.011 366.746C526.029 366.427 526.292 366.202 526.618 366.204C526.935 366.222 527.177 366.494 527.159 366.81C527.127 367.408 527.204 369.133 527.947 369.918C528.209 370.195 528.536 370.33 528.943 370.33C530.958 370.33 531.432 366.059 531.435 366.015C531.466 365.7 531.755 365.482 532.064 365.499C532.379 365.53 532.61 365.811 532.581 366.128C532.56 366.346 532.023 371.48 528.943 371.48Z" fill="#EDAB54"/>
<path fill-rule="evenodd" clip-rule="evenodd" d="M385.44 362.111C385.44 362.111 376.878 364.596 379.362 374.651C381.847 384.707 394.032 387.073 396.397 381.632C398.764 376.189 386.106 365.188 386.106 365.188L385.44 362.111Z" fill="#FFC66D"/>
<path fill-rule="evenodd" clip-rule="evenodd" d="M384.248 371.48C381.168 371.48 380.631 366.346 380.61 366.128C380.58 365.811 380.811 365.53 381.126 365.5C381.446 365.466 381.723 365.701 381.756 366.016C381.759 366.058 382.239 370.33 384.248 370.33C384.656 370.33 384.983 370.195 385.245 369.917C385.992 369.128 386.065 367.407 386.032 366.81C386.013 366.494 386.255 366.223 386.572 366.204C386.93 366.177 387.162 366.429 387.18 366.746C387.187 366.854 387.317 369.398 386.082 370.706C385.597 371.219 384.981 371.48 384.248 371.48Z" fill="#EDAB54"/>
</svg>
